<svg xmlns="http://www.w3.org/2000/svg" viewBox="0 0 36 36" width="256" height="256">
    <path d="M 35,15 L 35.6,15.6 L 35.4,16 L 31.4,16 L 30.4,17.2 L 29.6,19 L 31.4,22 L 36,22.4 L 34,24.2 L 31.2,25 L 28.8,29.1 L 26.9,31.1 L 24.7,32.3 L 22.3,32.9 L 12.1,32.7 L 7.2,30.7 L 4.6,28.7 L 2.6,26.4 L 1,23.4 L 0.2,20.6 L 0,17.2 L 0.4,14.4 L 2.6,9.6 L 5,6.9 L 7.8,4.9 L 12.3,3.3 L 32.2,3.1 L 32.4,3.5 L 29,8.7 L 28,9.4 L 14.1,9.4 L 11.1,10.6 L 8.6,13 L 7.2,16 L 7.2,20 L 8.6,23 L 11.5,25.6 L 14.7,26.6 L 19.9,26.6 L 22.1,25.8 L 23.7,24 L 24.3,22.6 L 24.1,21.8 L 13.3,21.8 L 13.9,19.8 L 15.5,17 L 16.3,16.4 L 24.9,16.4 L 27,14.4 L 29.2,13.4 L 32.2,13.4 L 34.8,14.8 Z" fill="#1FA3E2"/>
</svg>
